#!OML:ASF F:\VICON\USERDATA\INSTALL\rory3\rory3.ASF
:FULLY-SPECIFIED
:DEGREES
235
root 8.65142 18.185 -6.75054 -187.405 -6.4595 178.483
lowerback 10.8808 -0.978928 -2.78015
upperback 0.917909 -1.68775 1.00132
thorax -5.03375 -0.806606 2.8717
lowerneck -18.2046 -2.77108 -12.5144
upperneck 34.6588 -5.40206 7.37906
head 15.878 -3.90088 4.08761
rclavicle -3.00165e-014 5.1684e-015
rhumerus -36.9791 -20.1764 -70.6825
rradius 26.2065
rwrist 12.0509
rhand -14.0926 6.19368
rfingers 7.12502
rthumb 12.0398 -23.44
lclavicle -3.00165e-014 5.1684e-015
lhumerus -27.59 11.2077 84.7017
lradius 27.6576
lwrist -6.05691
lhand -17.8676 26.5058
lfingers 7.12502
lthumb 8.39815 56.3188
rfemur -10.4554 -1.71594 19.832
rtibia 34.6752
rfoot -3.74206 -2.74729
rtoes 0.556691
lfemur 9.01241 -1.90934 -20.6695
ltibia 39.186
lfoot 13.7491 -17.6435
ltoes -2.41211
236
root 8.63183 18.1637 -6.60004 -187.232 -6.44214 178.399
lowerback 10.8968 -1.06333 -2.85853
upperback 0.892142 -1.81029 0.970588
thorax -5.05999 -0.864126 2.90265
lowerneck -18.0062 -2.73243 -12.4023
upperneck 34.4586 -5.3424 7.2795
head 15.7158 -3.86574 4.03123
rclavicle -7.21837e-015 -1.63003e-014
rhumerus -37.2471 -20.9138 -70.2425
rradius 25.922
rwrist 12.1577
rhand -14.1875 5.83822
rfingers 7.12502
rthumb 11.9483 -23.8008
lclavicle -7.21837e-015 -1.63003e-014
lhumerus -27.0687 10.6497 85.0535
lradius 27.9001
lwrist -5.80614
lhand -18.0483 26.7438
lfingers 7.12502
lthumb 8.22376 56.5637
rfemur -11.246 -1.72942 19.6495
rtibia 34.8704
rfoot -3.98455 -2.58669
rtoes -2.12325
lfemur 9.5059 -2.2163 -20.9122
ltibia 37.86
lfoot 14.877 -18.4486
ltoes -1.85073
237
root 8.6115 18.1438 -6.45016 -187.108 -6.36338 178.29
lowerback 10.9686 -1.11883 -3.01619
upperback 0.884526 -1.90703 0.946822
thorax -5.09719 -0.907836 2.98349
lowerneck -17.9311 -2.7178 -12.3232
upperneck 34.3111 -5.33876 7.2948
head 15.6227 -3.84302 4.02178
rclavicle -1.78596e-014 1.51076e-014
rhumerus -37.4428 -21.5701 -69.8438
rradius 25.6159
rwrist 12.166
rhand -14.377 5.92198
rfingers 7.12502
rthumb 11.7656 -23.7276
lclavicle -1.78596e-014 1.51076e-014
lhumerus -26.5949 10.1004 85.3937
lradius 28.1989
lwrist -5.65839
lhand -18.0251 27.0042
lfingers 7.12502
lthumb 8.24607 56.8233
rfemur -11.9336 -1.80962 19.4507
rtibia 35.0518
rfoot -3.98389 -2.52542
rtoes -2.50395
lfemur 10.0915 -2.55489 -21.2238
ltibia 36.4334
lfoot 15.8435 -18.7922
ltoes -1.38134
238
root 8.59469 18.1199 -6.29729 -186.976 -6.39596 178.202
lowerback 11.0076 -1.18393 -3.20688
upperback 0.92173 -2.02041 0.949138
thorax -5.06529 -0.961956 3.11082
lowerneck -18.0906 -2.76387 -12.3541
upperneck 34.3239 -5.42162 7.4221
head 15.6841 -3.85983 4.06748
rclavicle -5.68866e-015 1.15295e-014
rhumerus -37.5215 -22.2173 -69.4483
rradius 25.2649
rwrist 12.2623
rhand -14.3614 5.98527
rfingers 7.12502
rthumb 11.7806 -23.6634
lclavicle -5.68866e-015 1.15295e-014
lhumerus -25.9382 9.59739 85.7715
lradius 28.2855
lwrist -5.66394
lhand -18.0651 26.8753
lfingers 7.12502
lthumb 8.20752 56.6959
rfemur -12.67 -1.89434 19.2683
rtibia 35.189
rfoot -4.1244 -2.64273
rtoes -1.21981
lfemur 10.68 -3.0059 -21.5104
ltibia 34.8523
lfoot 16.4848 -18.9825
ltoes -0.47658
239
root 8.57465 18.0988 -6.14307 -186.845 -6.43859 178.093
lowerback 11.1026 -1.25484 -3.38987
upperback 0.897731 -2.13955 0.967844
thorax -5.12736 -1.01463 3.25538
lowerneck -18.0121 -2.7775 -12.4221
upperneck 34.2442 -5.42866 7.43602
head 15.6308 -3.8681 4.08227
rclavicle 8.69683e-016 1.23246e-014
rhumerus -37.7399 -22.9682 -68.8649
rradius 24.8882
rwrist 12.6626
rhand -14.3085 6.14795
rfingers 7.12502
rthumb 11.8316 -23.4978
lclavicle 8.69683e-016 1.23246e-014
lhumerus -25.4333 9.27744 86.1403
lradius 28.4325
lwrist -5.77744
lhand -17.9938 26.6208
lfingers 7.12502
lthumb 8.27636 56.4386
rfemur -13.4544 -1.92437 19.0306
rtibia 35.2851
rfoot -4.10402 -2.76268
rtoes 0.716699
lfemur 11.2448 -3.45214 -21.8462
ltibia 33.1607
lfoot 16.795 -19.4747
ltoes 1.04213
240
root 8.55168 18.0784 -5.985 -186.641 -6.4116 177.943
lowerback 11.1477 -1.33143 -3.59001
upperback 0.863105 -2.26753 0.953565
thorax -5.17189 -1.0711 3.37482
lowerneck -17.9249 -2.78779 -12.4815
upperneck 34.2065 -5.45733 7.45692
head 15.5987 -3.88978 4.09469
rclavicle -1.28317e-016 6.75868e-015
rhumerus -37.9446 -23.4554 -68.5094
rradius 24.6847
rwrist 12.8332
rhand -14.3408 6.29162
rfingers 7.12502
rthumb 11.8005 -23.3559
lclavicle -1.28317e-016 6.75868e-015
lhumerus -24.9962 8.97232 86.4397
lradius 28.7983
lwrist -5.74499
lhand -17.9957 26.756
lfingers 7.12502
lthumb 8.27447 56.574
rfemur -14.2849 -1.98465 18.7667
rtibia 35.3236
rfoot -3.90657 -2.71717
rtoes 0.152639
lfemur 11.6621 -4.00622 -22.2833
ltibia 31.5207
lfoot 16.5711 -19.9365
ltoes 4.43079
241
root 8.52668 18.0487 -5.82164 -186.443 -6.40588 177.763
lowerback 11.1321 -1.39254 -3.77683
upperback 0.925977 -2.37671 0.904788
thorax -5.08278 -1.1261 3.44285
lowerneck -17.8716 -2.84318 -12.524
upperneck 34.0334 -5.52561 7.52478
head 15.5165 -3.9016 4.11582
rclavicle 8.98103e-015 -4.77083e-015
rhumerus -37.9842 -23.5451 -68.4952
rradius 24.6437
rwrist 12.3936
rhand -14.5723 6.06187
rfingers 7.12502
rthumb 11.5772 -23.5984
lclavicle 8.98103e-015 -4.77083e-015
lhumerus -24.35 8.52085 86.74
lradius 29.106
lwrist -5.68364
lhand -18.231 26.9617
lfingers 7.12502
lthumb 8.04741 56.7885
rfemur -15.0902 -2.13607 18.4628
rtibia 35.3091
rfoot -3.65467 -2.60102
rtoes -1.49026
lfemur 12.0812 -4.70729 -22.8053
ltibia 30.1256
lfoot 14.3272 -21.0383
ltoes 2.51482
242
root 8.50019 18.0268 -5.65405 -186.176 -6.38536 177.548
lowerback 11.0732 -1.42818 -3.97403
upperback 0.979402 -2.45114 0.840896
thorax -4.98219 -1.16386 3.49395
lowerneck -17.9277 -2.89792 -12.4144
upperneck 33.8679 -5.57367 7.48538
head 15.4521 -3.89183 4.06782
rclavicle -2.88859e-014 -1.35174e-014
rhumerus -38.024 -23.7193 -68.4808
rradius 24.6919
rwrist 12.0702
rhand -14.6036 5.67569
rfingers 7.12502
rthumb 11.5471 -23.9862
lclavicle -2.88859e-014 -1.35174e-014
lhumerus -23.627 8.09513 87.043
lradius 29.315
lwrist -5.6572
lhand -18.5734 26.3425
lfingers 7.12502
lthumb 7.71696 56.1817
rfemur -15.9788 -2.26957 18.0978
rtibia 35.2973
rfoot -3.43528 -2.49342
rtoes -2.3609
lfemur 12.4121 -5.31056 -23.3634
ltibia 28.9474
lfoot 10.7827 -22.1754
ltoes -3.66365
243
root 8.47556 18.0121 -5.48178 -185.928 -6.29756 177.506
lowerback 11.1594 -1.46634 -4.0493
upperback 0.991855 -2.51558 0.863211
thorax -5.00743 -1.19427 3.5726
lowerneck -18.1233 -2.95752 -12.3757
upperneck 33.8142 -5.60694 7.45852
head 15.4754 -3.88751 4.0424
rclavicle -2.55563e-014 -3.57812e-015
rhumerus -38.0596 -23.6099 -68.579
rradius 24.867
rwrist 11.7693
rhand -14.5362 5.54691
rfingers 7.12502
rthumb 11.6121 -24.1114
lclavicle -2.55563e-014 -3.57812e-015
lhumerus -23.0142 7.88262 87.3032
lradius 29.6013
lwrist -5.87234
lhand -18.6314 25.2583
lfingers 7.12502
lthumb 7.66092 55.0996
rfemur -16.8459 -2.27672 17.9337
rtibia 35.2741
rfoot -3.17887 -2.41946
rtoes -1.75792
lfemur 12.5814 -5.68716 -23.6766
ltibia 27.9665
lfoot 8.00188 -22.0505
ltoes -4.62577
